<?xml version="1.0" standalone="no"?>
<!DOCTYPE svg PUBLIC "-//W3C//DTD SVG 1.1//EN" "http://www.w3.org/Graphics/SVG/1.1/DTD/svg11.dtd" >
<svg xmlns="http://www.w3.org/2000/svg" xmlns:xlink="http://www.w3.org/1999/xlink" version="1.1">
<metadata></metadata>
<defs>
<font id="ocrbmedium" horiz-adv-x="1474" >
<font-face units-per-em="2048" ascent="1638" descent="-410" />
<missing-glyph horiz-adv-x="500" />
<glyph horiz-adv-x="0" />
<glyph horiz-adv-x="682" />
<glyph unicode=" " />
<glyph unicode="!" d="M594 0v244h287v-244h-287zM594 1491h287l-41 -934h-211z" />
<glyph unicode="&#x22;" d="M367 854v535h235l-67 -535h-168zM872 854v535h236l-66 -535h-170z" />
<glyph unicode="#" d="M260 0l96 414h-96l39 143h90l82 361h-172l41 143h160l94 430h162l-97 -430h293l95 430h167l-94 -430h94l-40 -143h-84l-82 -361h166l-39 -143h-154l-88 -414h-170l90 414h-289l-96 -414h-168zM551 557h289l82 361h-291z" />
<glyph unicode="$" d="M238 397v39h211q-6 -139 178 -139h28v397q-121 37 -207 77t-148 111.5t-62 176.5q0 166 117.5 241.5t299.5 90.5v100h166v-100q84 -9 171 -44.5t146.5 -100t59.5 -152.5v-35h-211q4 86 -36 112.5t-130 26.5v-354q127 -43 212 -84t144.5 -114t59.5 -181q0 -104 -60.5 -183 t-156.5 -124t-199 -54v-104h-166v104h-39q-86 0 -174 35t-146 102.5t-58 155.5zM449 1061q0 -72 43 -103.5t124 -58.5l39 -12v311q-90 0 -148 -28.5t-58 -108.5zM821 297q205 17 205 158q0 53 -29.5 88t-67.5 51t-108 41v-338z" />
<glyph unicode="%" d="M272 1268q0 109 63.5 179.5t164.5 70.5q100 0 163.5 -71t63.5 -179q0 -102 -63.5 -173t-163.5 -71t-164 70.5t-64 173.5zM281 0v111l802 1380h101v-119l-793 -1372h-110zM414 1268q0 -59 14 -92t72 -33q57 0 71.5 32.5t14.5 92.5q0 68 -14.5 99.5t-71.5 31.5 q-58 0 -72 -32t-14 -99zM745 225q0 111 63.5 180.5t164.5 69.5q100 0 163.5 -70.5t63.5 -179.5q0 -102 -63.5 -172.5t-163.5 -70.5t-164 70.5t-64 172.5zM887 225q0 -59 14 -92t72 -33q57 0 71.5 33t14.5 92q0 68 -14.5 99.5t-71.5 31.5q-58 0 -72 -31.5t-14 -99.5z" />
<glyph unicode="&#x26;" d="M231 395q0 115 62.5 219.5t161.5 169.5q-76 106 -124 203.5t-48 190.5q0 106 61.5 183t157.5 117t198 40q94 0 183.5 -37t146.5 -109t57 -168q0 -104 -71.5 -193t-181.5 -171l-121 -90l280 -385q39 125 39 268v47h211v-35q0 -102 -36 -235.5t-93 -208.5l148 -201h-256 l-43 55q-62 -41 -130.5 -57t-150.5 -16q-127 0 -229.5 49t-162 142t-59.5 222zM442 416q0 -111 78 -176.5t191 -65.5q80 0 143 39l-293 412q-49 -41 -84 -97.5t-35 -111.5zM494 1130q0 -55 32.5 -114.5t83.5 -124.5q13 10 68 53q92 66 145.5 119t53.5 111q0 76 -55.5 113.5 t-135.5 37.5q-84 0 -138 -54t-54 -141z" />
<glyph unicode="'" d="M596 1389h281l-41 -648h-199z" />
<glyph unicode="(" d="M442 758q0 141 57.5 289.5t156 272.5t218.5 198h158v-148q-102 -27 -190 -131t-138.5 -239.5t-50.5 -241.5t50.5 -241.5t138.5 -240t190 -129.5v-147h-158q-121 74 -219 198t-155.5 271t-57.5 289z" />
<glyph unicode=")" d="M442 0v147q102 25 189.5 130.5t138.5 239.5t51 241q0 106 -51 241.5t-138 239.5t-190 131v148h158q121 -74 219.5 -198t155.5 -272.5t57 -289.5t-57 -288.5t-155.5 -271.5t-219.5 -198h-158z" />
<glyph unicode="*" d="M236 709l83 204l330 -143l-18 385h209l-29 -385l338 143l90 -217l-360 -100l247 -293l-186 -121l-201 316l-215 -316l-166 121l232 293z" />
<glyph unicode="+" d="M223 590v211h408v381h211v-381h409v-211h-409v-434h-211v434h-408z" />
<glyph unicode="," d="M287 -354l420 716h374v-155l-557 -561h-237z" />
<glyph unicode="-" d="M223 590v211h1028v-211h-1028z" />
<glyph unicode="." d="M541 0v319h391v-319h-391z" />
<glyph unicode="/" d="M324 0l612 1518h215l-619 -1518h-208z" />
<glyph unicode="0" d="M240 770q0 330 65 522q33 96 94.5 145.5t141.5 65t196 15.5q115 0 196 -15.5t142.5 -64.5t93.5 -146q66 -193 66 -522q0 -557 -148 -698q-49 -49 -145 -69.5t-205 -20.5t-205 20.5t-147 69.5q-145 141 -145 698zM451 748q0 -152 12 -309.5t51 -209.5q25 -35 85 -45 t138 -10t138.5 10.5t85.5 44.5q37 51 50 212t13 307q0 276 -23 413q-12 76 -42.5 111t-77.5 44t-144 9q-96 0 -143 -9t-78 -44t-43 -111q-23 -123 -22 -413z" />
<glyph unicode="1" d="M336 926v262l362 303h228v-1491h-211v1253z" />
<glyph unicode="2" d="M270 0v113q0 172 43 288.5t130 202.5t243 184q92 57 142.5 94.5t92.5 93.5t42 124q0 59 -33 111.5t-85 83t-112 30.5q-104 0 -224 -46t-212 -114v228q80 61 188.5 93t214.5 32q131 0 239 -46.5t171.5 -138.5t63.5 -225q0 -119 -47.5 -203t-116 -139t-191.5 -135l-43 -27 q-133 -88 -214 -177t-81 -204v-30h674v-193h-885z" />
<glyph unicode="3" d="M256 70v211q164 -106 381 -107q158 0 263.5 72.5t105.5 224.5q0 139 -94.5 206.5t-241.5 67.5h-164v162l383 391h-633v193h901v-209l-375 -375q195 -10 315 -129t120 -313q0 -160 -79 -268.5t-210 -161.5t-287 -53q-178 0 -385 88z" />
<glyph unicode="4" d="M258 328v221l438 942h217l-450 -971h360v307h211v-307h183v-192h-183v-328h-211v328h-565z" />
<glyph unicode="5" d="M317 -18v192h121q213 0 359.5 83t146.5 278q0 174 -118.5 232t-254.5 50l-254 -18l45 692h752v-193h-565l-25 -288h49q252 0 417 -118t165 -360q0 -229 -140.5 -351t-312.5 -160.5t-315 -38.5h-70z" />
<glyph unicode="6" d="M238 489q0 170 50 307.5t158 262.5l375 432h264q-202 -188 -397 -438l-98 -129l2 -4q86 39 188 38q131 0 235.5 -67.5t163 -179t58.5 -242.5q0 -145 -64.5 -256t-177 -171t-256.5 -60q-238 0 -369.5 134t-131.5 373zM449 475q0 -133 78.5 -217t209.5 -84q129 0 209 82 t80 217q0 129 -82 211t-211 82q-123 0 -203.5 -83t-80.5 -208z" />
<glyph unicode="7" d="M256 1298v193h981v-25q0 -78 -7 -127t-32 -102q-29 -59 -154 -213q-135 -160 -206.5 -262.5t-114.5 -229t-43 -292.5v-240h-211v240q0 231 93 429.5t267 403.5l74 86q37 41 57.5 73t24.5 66h-729z" />
<glyph unicode="8" d="M240 395q0 158 80.5 261.5t230.5 177.5q-121 78 -187.5 157.5t-66.5 196.5q0 113 63.5 186.5t164 108.5t212.5 35q113 0 213.5 -35t164 -109t63.5 -186q0 -117 -68 -197t-188 -157q152 -74 232.5 -177.5t80.5 -261.5q0 -213 -138.5 -313t-359.5 -100q-223 0 -360 99 t-137 314zM451 414q0 -119 83.5 -179.5t202.5 -60.5t203 60.5t84 179.5q0 76 -39 131t-93 92t-155 92q-98 -53 -154.5 -91t-94 -93.5t-37.5 -130.5zM508 1169q0 -78 69.5 -137t159.5 -96q90 37 160 96.5t70 136.5q0 84 -69 120t-161 36t-160.5 -36t-68.5 -120z" />
<glyph unicode="9" d="M233 1018q0 150 63.5 263.5t179.5 175t265 61.5q156 0 267.5 -66t171 -184.5t59.5 -276.5q0 -168 -86 -341t-206 -320.5t-294 -329.5h-280q172 166 292.5 299t215.5 276l-2 -2l-5 5q-78 -39 -174 -39q-133 0 -239.5 63.5t-167 173t-60.5 242.5zM444 1024q0 -131 83 -212 t214 -81q127 0 207 84t80 213q0 133 -79 215t-208 82q-141 0 -219 -79t-78 -222z" />
<glyph unicode=":" d="M541 0v319h391v-319h-391zM541 707v319h391v-319h-391z" />
<glyph unicode=";" d="M315 -354l316 663h420l-488 -663h-248zM672 715v311h375v-311h-375z" />
<glyph unicode="&#x3c;" d="M274 735v51l926 605v-234l-641 -393l641 -393v-238z" />
<glyph unicode="=" d="M242 379v176h991v-176h-991zM242 834v176h991v-176h-991z" />
<glyph unicode="&#x3e;" d="M274 133v238l641 393l-641 393v234l926 -605v-51z" />
<glyph unicode="?" d="M354 958v50q0 399 414 399q106 0 193.5 -42t138.5 -121t51 -185q0 -119 -46 -199t-147 -174q-35 -31 -49 -63.5t-14 -83.5v-37h-209v47q0 53 3 80.5t18 56.5q14 29 55 72t76 71q53 51 77.5 93.5t24.5 107.5q0 82 -47 133t-129 51q-104 0 -151.5 -61t-47.5 -168v-27h-211z M645 0v266h291v-266h-291z" />
<glyph unicode="@" d="M260 285v204q0 121 61.5 217.5t227.5 96.5q70 0 121 -41l28 -25v56h164v-529q0 -53 15.5 -89t66.5 -36q61 0 83 65.5t22 194.5v439q0 184 -78 288.5t-246 104.5q-125 0 -213 -51.5t-88 -153.5v-37h-164v19q0 193 126 287t339 94q254 0 370.5 -165t116.5 -450v-397 q0 -176 -55 -285.5t-213 -109.5q-59 0 -99 16t-67 61l-18 31l-8 -14q-35 -47 -88.5 -70.5t-114.5 -23.5q-139 0 -214 81.5t-75 221.5zM424 285q0 -66 31.5 -106t93.5 -40q78 0 113.5 39t35.5 107v204q0 70 -35.5 113t-113.5 43q-59 0 -92 -44t-33 -112v-204z" />
<glyph unicode="A" d="M223 0l379 1389h268l379 -1389h-213l-100 399h-401l-99 -399h-213zM584 592h305l-150 602h-4z" />
<glyph unicode="B" d="M260 0v1389h449q223 0 369.5 -92.5t146.5 -305.5q0 -90 -48.5 -161.5t-129.5 -100.5v-4q98 -23 154 -113t56 -198q0 -111 -50 -205t-154.5 -151.5t-257.5 -57.5h-535zM471 193h285q133 0 212 47t79 174q0 133 -80 182t-222 49h-274v-452zM471 819h279q125 0 194.5 35 t69.5 147q0 115 -82 155t-211 40h-250v-377z" />
<glyph unicode="C" d="M319 690q0 180 44.5 342t151 268.5t282.5 106.5q98 0 184 -42t138 -118t52 -172h-210q-5 62 -55 100.5t-118 38.5q-147 0 -202.5 -164.5t-55.5 -349.5q0 -190 54.5 -358t203.5 -168q68 0 118 43t55 109h210q0 -100 -52 -179t-138 -122t-184 -43q-174 0 -281.5 107.5 t-152 268t-44.5 332.5z" />
<glyph unicode="D" d="M338 0v1389h131q205 0 371 -93.5t261 -258.5t95 -371q0 -207 -89 -357.5t-249 -229.5t-362 -79h-158zM549 193h12q127 1 221 61q98 64 150.5 173.5t52.5 242.5q0 127 -54 246.5t-154.5 196.5t-227.5 83v-1003z" />
<glyph unicode="E" d="M342 0v1389h832v-193h-621v-375h541v-192h-541v-436h645v-193h-856z" />
<glyph unicode="F" d="M442 0v1389h729v-193h-518v-375h418v-192h-418v-629h-211z" />
<glyph unicode="G" d="M260 696q0 317 127 514t428 197q98 0 186.5 -40t140.5 -105.5t52 -135.5v-16h-211q-14 59 -54 81.5t-114 22.5q-203 0 -273.5 -133t-70.5 -366q0 -238 68.5 -389.5t273.5 -151.5q84 0 170 33v344h-287v192h498v-677q-94 -39 -197.5 -61.5t-201.5 -22.5q-289 0 -412 202.5 t-123 511.5z" />
<glyph unicode="H" d="M295 0v1389h211v-572h463v572h211v-1389h-211v625h-463v-625h-211z" />
<glyph unicode="I" d="M381 0v193h250v1003h-209v193h627v-193h-207v-1003h250v-193h-711z" />
<glyph unicode="J" d="M315 332v119h211v-129q0 -70 37 -109t109 -39q74 0 106.5 34t37.5 79t5 135v967h211v-1006q0 -201 -92 -301t-266 -100q-164 0 -261.5 95t-97.5 255z" />
<glyph unicode="K" d="M272 0v1389h211v-568l564 568h274l-670 -662l711 -727h-291l-588 623v-623h-211z" />
<glyph unicode="L" d="M338 0v1389h211v-1196h711v-193h-922z" />
<glyph unicode="M" d="M248 0v1389h325l162 -535h4l162 535h326v-1389h-211v1157h-4l-191 -706h-168l-190 706h-4v-1157h-211z" />
<glyph unicode="N" d="M276 0v1389h246l479 -1008h5v1008h192v-1389h-229l-496 1051h-4v-1051h-193z" />
<glyph unicode="O" d="M246 696q0 156 52 321t163.5 277.5t275.5 112.5t275.5 -112.5t164 -277.5t52.5 -321q0 -166 -52.5 -330.5t-163 -274t-276.5 -109.5t-276.5 109.5t-162.5 274t-52 330.5zM457 686q0 -188 60.5 -350t219.5 -162q158 0 219.5 162t61.5 350q0 197 -60.5 362.5t-220.5 165.5 q-162 0 -221 -165.5t-59 -362.5z" />
<glyph unicode="P" d="M319 0v1389h469q217 0 344.5 -102.5t127.5 -311.5q0 -203 -137.5 -302.5t-348.5 -99.5h-244v-573h-211zM530 766h248q271 0 271 213q0 127 -68 172t-201 45h-250v-430z" />
<glyph unicode="Q" d="M223 729q0 166 44 319.5t148.5 256t276.5 102.5t276.5 -102.5t148.5 -255t44 -320.5q0 -129 -18.5 -233.5t-73.5 -186.5l242 -309h-254l-121 156q-47 -39 -111.5 -61.5t-132.5 -22.5q-166 0 -271.5 96t-151.5 245.5t-46 315.5zM434 752q0 -182 55.5 -335t202.5 -153 q82 0 125 45l-282 369h249l144 -180q14 49 18 104t4 150q0 180 -54 321t-204 141t-204 -141t-54 -321z" />
<glyph unicode="R" d="M322 0v1389h403q201 0 325 -103.5t124 -302.5q0 -137 -73 -238.5t-204 -126.5l363 -618h-242l-318 575h-168v-575h-210zM532 768h156q139 0 207 47t68 176q0 125 -72 165t-205 40h-154v-428z" />
<glyph unicode="S" d="M299 342v43h211q2 -96 63.5 -153.5t161.5 -57.5q96 0 163 48t67 145q0 66 -37 112.5t-92.5 78.5t-149.5 75l-37 18q-98 47 -163.5 92t-109.5 114t-44 165q0 117 58.5 204t155.5 134t214 47q96 0 189 -43t152.5 -121t59.5 -178v-27h-211q1 8 1 16q0 73 -51 114 q-56 46 -144 46q-92 0 -152.5 -40.5t-60.5 -133.5q0 -68 44 -112.5t115 -77.5l123 -57q113 -53 185.5 -105.5t119 -130.5t46.5 -188q0 -117 -61.5 -205t-162 -135t-217.5 -47q-108 0 -208.5 43t-164 125.5t-63.5 191.5z" />
<glyph unicode="T" d="M256 1196v193h961v-193h-375v-1196h-211v1196h-375z" />
<glyph unicode="U" d="M268 465v924h211v-910q0 -158 54.5 -231.5t203.5 -73.5q150 0 204 74t54 231v910h211v-924q0 -231 -115.5 -357t-353.5 -126t-353.5 125.5t-115.5 357.5z" />
<glyph unicode="V" d="M213 1389h211l311 -1180h4l310 1180h211l-379 -1389h-293z" />
<glyph unicode="W" d="M236 1274v115h210v-115q0 -391 66 -912h4l141 494h158l141 -494h5q65 512 65 900v12v115h211v-115q0 -127 -12.5 -341t-32.5 -325l-105 -608h-229l-119 483h-4l-121 -483h-229l-104 608q-20 111 -32.5 325t-12.5 341z" />
<glyph unicode="X" d="M236 0l389 715l-389 674h245l256 -482l254 482h248l-373 -674l373 -715h-248l-254 526l-256 -526h-245z" />
<glyph unicode="Y" d="M238 1389h231l268 -523l269 523h231l-393 -740v-649h-211v649z" />
<glyph unicode="Z" d="M317 0v145l541 1051h-522v193h751v-162l-526 -1034h594v-193h-838z" />
<glyph unicode="[" d="M360 0v1518h752v-193h-541v-1132h541v-193h-752z" />
<glyph unicode="\" d="M324 1518h213l614 -1518h-209z" />
<glyph unicode="]" d="M360 0v193h541v1132h-541v193h752v-1518h-752z" />
<glyph unicode="^" d="M242 838l446 680h94l449 -680l-129 -101l-367 391l-366 -391z" />
<glyph unicode="_" d="M0 -143h1475v-211h-1475v211z" />
<glyph unicode="`" d="M459 1491h262l186 -330h-196z" />
<glyph unicode="a" d="M256 299q0 182 139.5 264t335.5 82h191v37q0 68 -12.5 111t-54.5 67.5t-124 24.5q-98 0 -158.5 -24.5t-60.5 -92.5h-211q10 154 129 215t291 61q152 0 241 -38.5t130 -126.5t41 -240v-639h-211v98q-60 -55 -137.5 -85.5t-159.5 -30.5q-158 0 -263.5 84t-105.5 233z M467 307q0 -78 49 -122t129 -44q133 0 205 88t72 222v34h-220q-98 0 -166.5 -42t-68.5 -136z" />
<glyph unicode="b" d="M274 0v1491h211v-578h7q49 66 132 98.5t173 32.5q150 0 250 -76.5t147 -201.5t47 -270q0 -139 -54 -257t-158.5 -187.5t-246.5 -69.5q-86 0 -163.5 31.5t-133.5 90.5v-104h-211zM485 512q0 -145 68 -249.5t207 -104.5q133 0 201.5 102t68.5 242q0 147 -62.5 256.5 t-197.5 109.5q-145 0 -215 -102t-70 -254z" />
<glyph unicode="c" d="M338 518q0 141 52 261t154.5 192.5t246.5 72.5q150 0 255 -74.5t128 -219.5h-211q-2 53 -53.5 85.5t-112.5 32.5q-248 0 -248 -348q0 -152 52 -257t185 -105q70 0 123.5 45t53.5 110h211q0 -102 -58.5 -178t-152 -114.5t-191.5 -38.5q-145 0 -242.5 73.5t-144.5 195.5 t-47 267z" />
<glyph unicode="d" d="M236 510q0 145 48 266t147 194.5t247 73.5q92 0 174 -31.5t129 -94.5h4v573h211v-1491h-211v106q-55 -55 -135 -89.5t-158 -34.5q-147 0 -250.5 71.5t-154.5 191.5t-51 265zM446 526q0 -150 66 -259t205 -109q137 0 202.5 109.5t65.5 258.5q0 150 -69.5 246t-213.5 96 q-131 0 -193.5 -102t-62.5 -240z" />
<glyph unicode="e" d="M276 506q0 242 120 390t354 148q231 0 338.5 -136t107.5 -373v-64h-709q-1 -12 -1 -24q0 -123 76 -202q83 -87 224 -87q61 0 104.5 14t57.5 57h209q-6 -131 -120.5 -189t-260.5 -58q-240 0 -370 140t-130 384zM487 647h498q-2 101 -68.5 161t-171.5 60q-100 0 -175.5 -60 t-82.5 -161z" />
<glyph unicode="f" d="M330 850v176h293v49q0 205 91 310.5t300 105.5h108v-176h-47q-104 0 -154.5 -18.5t-68.5 -67.5t-18 -154v-49h288v-176h-288v-850h-211v850h-293z" />
<glyph unicode="g" d="M258 567q0 135 47 243t141.5 171t229.5 63q86 0 164 -26.5t121 -83.5h2v92h211v-991q0 -219 -128 -304t-358 -85q-164 0 -275.5 47t-111.5 190v23h211v-6q0 -96 174 -97q119 0 177.5 20.5t79 64.5t20.5 130v152l-9 -6q-70 -53 -131 -78t-143 -25q-211 0 -316.5 142.5 t-105.5 363.5zM469 555q0 -150 56.5 -243t193.5 -93q129 0 186.5 100.5t57.5 241.5q0 143 -59.5 234.5t-194.5 91.5q-131 0 -185.5 -94.5t-54.5 -237.5z" />
<glyph unicode="h" d="M319 0v1491h211v-549q48 49 119.5 75.5t147.5 26.5q186 0 271 -116.5t85 -309.5v-618h-211v635q0 109 -36 163t-140 54q-98 0 -150.5 -38t-69 -102.5t-16.5 -162.5v-549h-211z" />
<glyph unicode="i" d="M383 834v192h541v-1026h-211v834h-330zM633 1231v260h291v-260h-291z" />
<glyph unicode="j" d="M387 -162h145q14 0 60 -1h7q41 0 69 9q30 11 55 35q29 29 36 71t7 116v766h-244v192h455v-969q0 -154 -42 -242.5t-137.5 -128.5t-256.5 -40h-154v192zM686 1231v260h291v-260h-291z" />
<glyph unicode="k" d="M367 0v1491h211v-832l391 367h278l-489 -444l534 -582h-274l-440 479v-479h-211z" />
<glyph unicode="l" d="M500 449v1042h211v-1096q0 -125 51 -172t180 -47h137v-176h-190q-150 0 -235 51t-119.5 148.5t-34.5 249.5z" />
<glyph unicode="m" d="M213 0v1026h211v-76q37 43 90 70q51 24 108 24h5q119 0 178 -79q81 79 204 79h3q119 0 183.5 -83.5t64.5 -204.5v-756h-211v756q0 61 -16.5 96t-71.5 35q-57 0 -83 -34t-31 -76t-5 -107v-670h-211v756q0 131 -86 131q-78 0 -99.5 -60.5t-21.5 -156.5v-670h-211z" />
<glyph unicode="n" d="M279 0v1026h210v-115h5q47 61 135 97t176 36q180 0 285.5 -109.5t105.5 -289.5v-645h-211v659q0 209 -203 209q-147 0 -220 -90t-73 -243v-535h-210z" />
<glyph unicode="o" d="M240 518q0 156 59 274.5t172 185t266 66.5q152 0 264.5 -66.5t173 -185t60.5 -274.5q0 -154 -59.5 -275.5t-172 -191t-266.5 -69.5t-266.5 69.5t-171.5 191.5t-59 275zM451 516q0 -164 66.5 -270.5t219.5 -106.5q154 0 220.5 106.5t66.5 270.5q0 160 -69.5 265.5 t-217.5 105.5q-147 0 -216.5 -105.5t-69.5 -265.5z" />
<glyph unicode="p" d="M274 -354v1380h211v-96l15 8q72 57 131 81.5t143 24.5q147 0 251.5 -72.5t159 -194.5t54.5 -265t-53 -264t-156.5 -193.5t-247.5 -72.5q-78 0 -162.5 30.5t-134.5 83.5v-450h-211zM485 514q0 -154 65.5 -255t209.5 -101q141 0 204.5 98t63.5 248q0 364 -267 364h-1 q-144 0 -209.5 -101t-65.5 -253z" />
<glyph unicode="q" d="M236 496q0 147 51 272t153.5 200.5t249.5 75.5q84 0 161 -30.5t136 -89.5v102h211v-1380h-211v456q-53 -59 -131 -89.5t-164 -30.5q-141 0 -244.5 68.5t-157.5 185t-54 260.5zM446 520q0 -160 57.5 -261t205.5 -101q152 0 215 102t63 264q0 141 -65.5 242.5t-198.5 101.5 q-145 0 -211 -98t-66 -250z" />
<glyph unicode="r" d="M393 0v1026h211v-113h4q47 63 116 97t150 34q135 0 223.5 -87t88.5 -224v-41h-211v31q0 66 -33 115t-96 49q-135 0 -188.5 -104.5t-53.5 -252.5v-530h-211z" />
<glyph unicode="s" d="M301 272h211q4 -131 199 -131q92 0 172 33t80 111q0 70 -43 95.5t-125 39.5q-197 35 -306 86q-74 31 -112.5 96.5t-38.5 149.5q0 160 124 226t281 66q154 0 269.5 -64.5t115.5 -178.5v-31h-210q-3 61 -57 88t-118 27q-76 0 -135 -27t-59 -96q0 -61 34.5 -90t100.5 -41 l51 -10q137 -25 224.5 -54.5t151 -97.5t63.5 -184q0 -168 -139.5 -235.5t-327.5 -67.5q-168 0 -287 67.5t-119 222.5z" />
<glyph unicode="t" d="M328 868v176h211v234l211 55v-289h366v-176h-366v-514q0 -90 27.5 -143t109.5 -53q53 0 119.5 23.5t109.5 56.5v-195q-49 -29 -111.5 -45t-121.5 -16q-178 0 -261 105.5t-83 287.5v493h-211z" />
<glyph unicode="u" d="M279 354v672h210v-672q0 -106 42 -151t149 -45q162 0 233.5 91t71.5 257v520h211v-1026h-211v115q-55 -66 -149.5 -99.5t-192.5 -33.5q-172 0 -268 101t-96 271z" />
<glyph unicode="v" d="M213 1026h233l287 -852h4l289 852h234l-373 -1026h-301z" />
<glyph unicode="w" d="M236 1026h215l73 -737h4l105 340h207l106 -363h4l74 760h215l-125 -1026h-254l-121 420h-4l-121 -420h-247z" />
<glyph unicode="x" d="M233 0l377 516l-377 510h285l221 -344l217 344h244l-352 -504l391 -522h-264l-250 375l-250 -375h-242z" />
<glyph unicode="y" d="M201 1026h258l305 -575l305 575h221l-626 -1157q-45 -84 -88.5 -131t-101.5 -69.5t-148 -22.5h-47v176h32q100 0 160 100l184 324z" />
<glyph unicode="z" d="M319 0v213l555 637h-518v176h752v-203l-561 -647h606v-176h-834z" />
<glyph unicode="{" d="M324 662v192h92q94 0 132 29.5t38 122.5v137q0 182 103.5 278.5t275.5 96.5h186v-193h-123q-82 0 -129 -10t-74.5 -50t-27.5 -122v-137q0 -70 -22.5 -134.5t-69.5 -89.5l-50 -24l50 -23q47 -25 69.5 -89t22.5 -136v-135q0 -82 27.5 -122t74.5 -50t129 -10h123v-193h-186 q-172 0 -275.5 95t-103.5 280v135q0 92 -38 122t-132 30h-92z" />
<glyph unicode="|" d="M631 -354v1872h211v-1872h-211z" />
<glyph unicode="}" d="M324 0v193h122q82 0 129.5 10t75 50t27.5 122v135q0 72 22.5 136.5t69.5 88.5l49 23l-49 24q-47 25 -69.5 89.5t-22.5 134.5v137q0 82 -27.5 122t-75 50t-129.5 10h-122v193h184q174 0 277.5 -96.5t103.5 -278.5v-137q0 -92 37 -122t133 -30h92v-192h-92q-96 0 -133 -30 t-37 -122v-135q0 -184 -103.5 -279.5t-277.5 -95.5h-184z" />
<glyph unicode="&#xa0;" />
<glyph unicode="&#xa3;" d="M279 0v193h147l113 495h-220v193h265l59 256q39 170 121 275.5t233 105.5q115 0 199 -84v-199h-63q-23 39 -59 64.5t-79 25.5q-61 0 -89.5 -40t-45.5 -111l-65 -293h231v-193h-276l-115 -495h561v-193h-917z" />
<glyph unicode="&#xa4;" d="M223 281l162 155q-39 63 -50 115.5t-11 107.5t11 105.5t50 114.5l-162 155l139 137l154 -163q27 29 96.5 48t124.5 19q53 0 123 -19.5t96 -47.5l154 163l139 -137l-162 -155q37 -63 49.5 -114.5t12.5 -105.5q0 -53 -12.5 -105t-49.5 -118l162 -155l-139 -136l-154 162 q-27 -27 -97.5 -47t-121.5 -20q-53 0 -123.5 20.5t-97.5 46.5l-154 -162zM500 659q0 -100 69.5 -171.5t167.5 -71.5q97 0 166.5 71.5t69.5 171.5q0 96 -69.5 168t-166.5 72q-98 0 -167.5 -70.5t-69.5 -169.5z" />
<glyph unicode="&#xa5;" d="M203 1491h252l282 -401l281 401h252l-428 -604v-244h364v-192h-364v-451h-211v451h-363v192h363v244z" />
<glyph unicode="&#xa7;" d="M262 336h211q35 -88 99.5 -125t158.5 -37q106 0 187 36t81 112q0 80 -67.5 113.5t-212.5 35.5q-205 2 -331 65.5t-126 233.5q0 68 27.5 109t57.5 65.5t40 34.5q-37 35 -56.5 86t-19.5 135q0 55 46 130t145.5 131.5t253.5 56.5q127 0 222 -45.5t145.5 -122t50.5 -170.5 h-211q0 72 -55.5 108.5t-159.5 36.5q-98 0 -162 -39t-64 -94q0 -63 53.5 -104t196.5 -48q186 -6 312 -79.5t126 -208.5q0 -76 -23.5 -120t-68.5 -89q45 -45 65.5 -86t23.5 -71t3 -77q0 -55 -36.5 -131t-136 -136t-269.5 -60q-219 0 -348 78.5t-158 275.5zM473 764 q0 -33 19.5 -57.5t52.5 -28.5q141 -18 221 -21q57 -2 145 -18l54 -8q14 23 23 50.5t11 33.5t2 18q0 37 -33.5 63.5t-97.5 37.5q-51 8 -178 20q-113 17 -160 35q-31 -35 -45 -61.5t-14 -63.5z" />
<glyph unicode="&#xa8;" d="M453 1184v307h196v-307h-196zM827 1184v307h195v-307h-195z" />
<glyph unicode="&#xad;" d="M223 590v211h1028v-211h-1028z" />
<glyph unicode="&#xb4;" d="M565 1161l187 330h262l-250 -330h-199z" />
<glyph unicode="&#xb8;" d="M598 -401l137 383h185l-97 -383h-225z" />
<glyph unicode="&#xc4;" d="M223 0l379 1389h268l379 -1389h-213l-100 399h-401l-99 -399h-213zM223 1245v273h197v-273h-197zM584 592h305l-150 602h-4zM1053 1245v273h196v-273h-196z" />
<glyph unicode="&#xc5;" d="M238 0l245 944q-156 96 -155 268q0 164 115.5 235t293.5 71q174 0 290 -71t120 -235q-4 -90 -45 -155.5t-119 -112.5l254 -944h-203l-63 268h-467l-64 -268h-202zM512 1219q0 -94 63.5 -134.5t161.5 -40.5t162 40t64 135q0 76 -67 108.5t-159 32.5t-158.5 -33t-66.5 -108 zM549 453h377l-103 434l-86 -6l-86 6z" />
<glyph unicode="&#xc6;" d="M227 0l277 1389h678v-193h-305l28 -371h277v-192h-262l32 -440h244v-193h-422l-22 354h-267l-71 -354h-187zM520 539h219l-41 661h-49z" />
<glyph unicode="&#xd1;" d="M276 0v1026h246l479 -743h5v743h192v-1026h-229l-496 776h-4v-776h-193zM328 1219v20q0 121 67.5 200t186.5 79q53 0 94 -18.5t82 -49.5q14 -10 39.5 -29.5t45 -29t40.5 -9.5q39 0 55 34t16 75h193q0 -117 -63.5 -204t-176.5 -87q-106 0 -209 78q-39 27 -61.5 40 t-46.5 13q-37 0 -53.5 -34.5t-16.5 -77.5h-192z" />
<glyph unicode="&#xd6;" d="M223 1245v273h197v-273h-197zM244 604q0 154 57 293t170 226t266 87q154 0 265.5 -87t169 -226t57.5 -293t-57.5 -297t-169 -234t-265.5 -91t-265.5 91t-169.5 235.5t-58 295.5zM455 604q0 -100 27.5 -198.5t91 -165t163.5 -66.5t163 66.5t90.5 165t27.5 198.5 q0 168 -67.5 291t-213.5 123q-147 0 -214.5 -123t-67.5 -291zM1053 1245v273h196v-273h-196z" />
<glyph unicode="&#xd8;" d="M246 696q0 156 52 321t163.5 277.5t275.5 112.5q76 0 152 -29.5t100 -64.5l78 147l125 -61l-105 -201q68 -98 105 -237.5t37 -264.5q0 -166 -52.5 -330.5t-163 -274t-276.5 -109.5q-82 0 -141 23.5t-98 57.5l-76 -147l-125 66l96 186q-53 59 -100 218t-47 310zM457 686 q0 -190 43 -313l399 768q-18 30 -67.5 51.5t-94.5 21.5q-162 0 -221 -165.5t-59 -362.5zM586 233q67 -59 151 -59q158 0 219.5 162t61.5 350q0 168 -43 297z" />
<glyph unicode="&#xdc;" d="M268 465v690h211v-676q0 -158 54.5 -231.5t203.5 -73.5q150 0 204 74t54 231v676h211v-690q0 -231 -115.5 -357t-353.5 -126t-353.5 125.5t-115.5 357.5zM268 1372v146h260v-146h-260zM946 1372v146h260v-146h-260z" />
<glyph unicode="&#xdf;" d="M276 0v1063q0 135 58.5 238.5t163 160t235.5 56.5q119 0 223.5 -47.5t170 -136.5t65.5 -212q0 -106 -51 -188t-146 -133q123 -43 183.5 -145.5t60.5 -241.5q0 -123 -53 -217.5t-148.5 -145.5t-214.5 -51h-45v176h23q123 0 175 50t52 175q0 152 -57.5 224.5t-200.5 72.5 h-33v193h33q211 0 211 213q0 117 -60.5 177t-175.5 60q-156 0 -207 -89t-51 -259v-993h-211z" />
<glyph unicode="&#xe5;" d="M256 299q0 182 139.5 264t335.5 82h191v37q0 68 -12.5 111t-54.5 68.5t-124 25.5q-98 0 -158.5 -25.5t-60.5 -93.5h-211q20 141 145 199q-68 47 -96 101t-28 134q0 160 110.5 238t274.5 78t274.5 -78t110.5 -238q0 -80 -29 -134t-96 -101q82 -23 117.5 -79.5t42 -109.5 t6.5 -139v-639h-211v98q-59 -55 -137 -85.5t-160 -30.5q-158 0 -263.5 84t-105.5 233zM467 307q0 -78 50 -123t128 -45q133 0 205 89t72 223v36h-220q-98 0 -166.5 -43t-68.5 -137zM489 1202q0 -166 218 -166q217 0 217 166q0 84 -61.5 124t-155.5 40q-95 0 -156.5 -40 t-61.5 -124z" />
<glyph unicode="&#xe6;" d="M256 291q0 139 39 210.5t118 97.5t220 26h16v45q0 106 -17.5 160.5t-86.5 54.5q-53 0 -83 -37t-30 -88h-176q0 127 73.5 205.5t198.5 78.5q168 0 211 -104q27 51 84.5 77.5t120.5 26.5q119 0 178.5 -50t78 -132t18.5 -203v-194h-390v-115q0 -90 18.5 -145t90.5 -55 q61 0 80.5 43t19.5 114h181v-47q0 -131 -69 -204.5t-198 -73.5q-166 0 -213 122q-29 -63 -90 -92.5t-139 -29.5q-133 0 -193.5 86t-60.5 223zM432 309q0 -68 21.5 -113.5t87.5 -45.5t87 55t21 135v125h-14q-105 0 -154 -31t-49 -125zM829 625h213v57q0 98 -18 150.5 t-90 52.5q-70 0 -87.5 -52.5t-17.5 -150.5v-57z" />
<glyph unicode="&#xf8;" d="M240 518q0 156 59 274.5t172 185t266 66.5q106 -4 185 -28l98 180h168l-141 -262q88 -66 138 -183.5t50 -232.5q0 -154 -59.5 -275.5t-172 -191t-266.5 -69.5q-96 0 -194 30l-107 -196h-166l148 272q-90 80 -134 193.5t-44 236.5zM451 516q0 -92 9 -153.5t48 -108.5 l330 608q-44 25 -101 25q-147 0 -216.5 -105.5t-69.5 -265.5zM629 168q57 -29 108 -29q154 0 220.5 106.5t66.5 270.5q0 66 -16.5 133.5t-53.5 114.5z" />
<glyph unicode="&#x2c6;" d="M315 1165l263 326h317l262 -326h-239l-181 199l-182 -199h-240z" />
<glyph unicode="&#x2dc;" d="M330 1219v20q0 121 66.5 200t185.5 79q53 0 94 -18.5t82 -49.5q14 -10 39.5 -29.5t45 -29t40.5 -9.5q39 0 55 34t16 75h191q0 -117 -62.5 -204t-175.5 -87q-106 0 -209 78q-39 27 -61.5 40t-46.5 13q-37 0 -53.5 -34.5t-16.5 -77.5h-190z" />
<glyph unicode="&#x2000;" horiz-adv-x="759" />
<glyph unicode="&#x2001;" horiz-adv-x="1518" />
<glyph unicode="&#x2002;" horiz-adv-x="759" />
<glyph unicode="&#x2003;" horiz-adv-x="1518" />
<glyph unicode="&#x2004;" horiz-adv-x="506" />
<glyph unicode="&#x2005;" horiz-adv-x="379" />
<glyph unicode="&#x2006;" horiz-adv-x="253" />
<glyph unicode="&#x2007;" horiz-adv-x="253" />
<glyph unicode="&#x2008;" horiz-adv-x="189" />
<glyph unicode="&#x2009;" horiz-adv-x="303" />
<glyph unicode="&#x200a;" horiz-adv-x="84" />
<glyph unicode="&#x2010;" d="M223 590v211h1028v-211h-1028z" />
<glyph unicode="&#x2011;" d="M223 590v211h1028v-211h-1028z" />
<glyph unicode="&#x2012;" d="M223 590v211h1028v-211h-1028z" />
<glyph unicode="&#x2013;" horiz-adv-x="1470" d="M223 590v211h1024v-211h-1024z" />
<glyph unicode="&#x2014;" horiz-adv-x="2494" d="M223 590v211h2048v-211h-2048z" />
<glyph unicode="&#x2018;" d="M596 1389h281l-41 -648h-199z" />
<glyph unicode="&#x2019;" d="M596 1389h281l-41 -648h-199z" />
<glyph unicode="&#x201c;" d="M367 854l65 535h170v-535h-235zM872 854l68 535h168v-535h-236z" />
<glyph unicode="&#x201d;" d="M367 854v535h235l-67 -535h-168zM872 854v535h236l-66 -535h-170z" />
<glyph unicode="&#x2022;" d="M520 348v350h432v-350h-432z" />
<glyph unicode="&#x202f;" horiz-adv-x="303" />
<glyph unicode="&#x205f;" horiz-adv-x="379" />
<glyph unicode="&#x25fc;" horiz-adv-x="1024" d="M0 0v1024h1024v-1024h-1024z" />
</font>
</defs>
</svg>
